<?xml version="1.0" encoding="UTF-8" standalone="no"?>
<!-- Generator: Adobe Illustrator 16.0.0, SVG Export Plug-In . SVG Version: 6.00 Build 0)  -->

<svg
   xmlns:dc="http://purl.org/dc/elements/1.1/"
   xmlns:cc="http://creativecommons.org/ns#"
   xmlns:rdf="http://www.w3.org/1999/02/22-rdf-syntax-ns#"
   xmlns:svg="http://www.w3.org/2000/svg"
   xmlns="http://www.w3.org/2000/svg"
   xmlns:sodipodi="http://sodipodi.sourceforge.net/DTD/sodipodi-0.dtd"
   xmlns:inkscape="http://www.inkscape.org/namespaces/inkscape"
   version="1.1"
   id="Слой_1"
   x="0px"
   y="0px"
   width="15.97px"
   height="15.99px"
   viewBox="0 0 15.97 15.99"
   enable-background="new 0 0 15.97 15.99"
   xml:space="preserve"
   inkscape:version="0.91 r13725"
   sodipodi:docname="1search.svg"><metadata
     id="metadata9"><rdf:RDF><cc:Work
         rdf:about=""><dc:format>image/svg+xml</dc:format><dc:type
           rdf:resource="http://purl.org/dc/dcmitype/StillImage" /></cc:Work></rdf:RDF></metadata><defs
     id="defs7" /><sodipodi:namedview
     pagecolor="#ffffff"
     bordercolor="#666666"
     borderopacity="1"
     objecttolerance="10"
     gridtolerance="10"
     guidetolerance="10"
     inkscape:pageopacity="0"
     inkscape:pageshadow="2"
     inkscape:window-width="1366"
     inkscape:window-height="716"
     id="namedview5"
     showgrid="false"
     inkscape:zoom="32.804683"
     inkscape:cx="7.9850001"
     inkscape:cy="7.9949999"
     inkscape:window-x="-8"
     inkscape:window-y="-8"
     inkscape:window-maximized="1"
     inkscape:current-layer="Слой_1" /><path
     d="m 15.901193,14.997803 -3.933536,-3.90234 c 1.003254,-1.1853945 1.61004,-2.7169478 1.61004,-4.3934052 0,-3.7564328 -3.038958,-6.80243359 -6.7883453,-6.80243359 C 3.0399633,-0.10037579 0,2.9446188 0,6.7020578 0,10.45849 3.0399633,13.504488 6.7893517,13.504488 c 1.6583449,0 3.1768165,-0.597726 4.3561733,-1.587902 l 3.935552,3.904355 c 0.226409,0.226412 0.593701,0.226412 0.820116,0 0.226409,-0.228425 0.226409,-0.596723 0,-0.823138 z M 6.805452,12.315071 c -3.0822268,0 -5.5818191,-2.506636 -5.5818191,-5.5989255 0,-3.0922897 2.4995923,-5.598926 5.5818191,-5.598926 3.0832339,0 5.581822,2.5066363 5.581822,5.598926 0,3.0922895 -2.499595,5.5989255 -5.581822,5.5989255 z"
     id="path3"
     inkscape:connector-curvature="0"
     style="clip-rule:evenodd;fill:#8fbc4c;fill-rule:evenodd" /></svg>