<?xml version="1.0" encoding="UTF-8" standalone="no"?>
<svg
   xmlns:dc="http://purl.org/dc/elements/1.1/"
   xmlns:cc="http://creativecommons.org/ns#"
   xmlns:rdf="http://www.w3.org/1999/02/22-rdf-syntax-ns#"
   xmlns:svg="http://www.w3.org/2000/svg"
   xmlns="http://www.w3.org/2000/svg"
   xmlns:sodipodi="http://sodipodi.sourceforge.net/DTD/sodipodi-0.dtd"
   xmlns:inkscape="http://www.inkscape.org/namespaces/inkscape"
   preserveAspectRatio="xMidYMid"
   width="130"
   height="39"
   viewBox="0 0 130 39"
   id="svg5600"
   version="1.1"
   inkscape:version="0.91 r13725"
   sodipodi:docname="logod.svg">
  <metadata
     id="metadata5609">
    <rdf:RDF>
      <cc:Work
         rdf:about="">
        <dc:format>image/svg+xml</dc:format>
        <dc:type
           rdf:resource="http://purl.org/dc/dcmitype/StillImage" />
      </cc:Work>
    </rdf:RDF>
  </metadata>
  <sodipodi:namedview
     pagecolor="#ffffff"
     bordercolor="#666666"
     borderopacity="1"
     objecttolerance="10"
     gridtolerance="10"
     guidetolerance="10"
     inkscape:pageopacity="0"
     inkscape:pageshadow="2"
     inkscape:window-width="1366"
     inkscape:window-height="716"
     id="namedview5607"
     showgrid="false"
     inkscape:zoom="24.674756"
     inkscape:cx="114.57099"
     inkscape:cy="23.427463"
     inkscape:window-x="-8"
     inkscape:window-y="-8"
     inkscape:window-maximized="1"
     inkscape:current-layer="svg5600" />
  <defs
     id="defs5602">
    <style
       id="style5604">

      .cls-2 {
        fill: #ffffff;
      }
    </style>
  </defs>
  <path
     d="m 122.541,34.371 c -0.176,0.311 -0.317,0.623 -0.387,0.9 -0.105,0.276 -0.141,0.519 -0.141,0.726 0,0.312 0.106,0.554 0.317,0.762 0.211,0.173 0.457,0.277 0.809,0.277 0.844,0 1.83,-0.45 2.92,-1.281 1.091,-0.865 2.217,-2.042 3.378,-3.6 l 0.563,0.104 -1.337,5.968 -13.686,0 7.247,-13.548 c 0.352,-0.623 0.599,-1.108 0.739,-1.523 0.176,-0.415 0.246,-0.874 0.246,-1.15 0,-0.312 -0.07,-0.554 -0.246,-0.727 -0.176,-0.208 -0.422,-0.277 -0.739,-0.277 -0.774,0 -1.688,0.562 -2.709,1.462 -0.985,0.865 -2.005,2.111 -3.025,3.669 l -0.563,-0.069 1.372,-6.268 12.63,0 z m -16.844,0.311 c 0.81,1.419 2.041,1.999 3.659,1.999 1.126,0 2.146,-0.407 3.026,-1.514 0.88,-1.108 1.513,-2.631 1.9,-4.569 l 0.879,0.657 c -0.387,2.354 -1.301,4.189 -2.673,5.538 -1.408,1.35 -3.096,1.861 -5.137,1.861 -2.322,0 -4.257,-0.788 -5.77,-2.622 -1.548,-1.869 -2.322,-4.188 -2.322,-7.026 0,-2.7 0.774,-4.915 2.357,-6.715 1.584,-1.765 3.554,-2.505 5.946,-2.505 2.287,0 4.152,0.567 5.524,1.951 1.372,1.35 2.075,3.366 2.075,5.685 l -10.695,0 0,0.934 c 0,2.873 0.422,4.907 1.231,6.326 z m 4.082,-8.874 c 0,-1.627 -0.212,-2.929 -0.634,-3.794 -0.387,-0.865 -0.985,-1.043 -1.759,-1.043 -0.809,0 -1.442,0.324 -1.97,1.259 -0.493,0.9 -0.774,2.02 -0.844,3.578 z m -20.89,8.874 c 0.809,1.419 2.041,2.048 3.659,2.048 1.126,0 2.146,-0.456 3.025,-1.563 0.88,-1.108 1.513,-2.631 1.9,-4.569 l 0.88,0.657 c -0.387,2.354 -1.302,4.189 -2.674,5.538 -1.407,1.35 -3.096,1.885 -5.136,1.885 -2.323,0 -4.258,-0.812 -5.77,-2.646 -1.548,-1.869 -2.322,-4.188 -2.322,-7.026 0,-2.7 0.774,-4.915 2.357,-6.715 1.583,-1.765 3.553,-2.484 5.946,-2.484 2.286,0 4.151,0.546 5.523,1.93 1.372,1.35 2.076,3.347 2.076,5.666 l -10.695,0 0,0.935 c 0,2.873 0.422,4.925 1.231,6.344 z m 4.081,-8.871 c 0,-1.627 -0.211,-2.932 -0.633,-3.797 -0.387,-0.865 -0.985,-1.043 -1.759,-1.043 -0.809,0 -1.443,0.303 -1.971,1.238 -0.492,0.9 -0.774,2.045 -0.844,3.602 z m -10.628,-5.62 -0.387,1.622 -2.288,0 0,7.92 c 0,3.045 0.283,5.088 0.635,6.126 0.316,1.004 0.95,1.71 1.829,1.987 l 0,0.391 c -1.337,-0.033 -3.363,0.014 -6.051,-0.02 -0.493,-0.277 -0.845,-0.766 -1.02,-1.354 -0.212,-0.554 -0.317,-1.592 -0.317,-3.081 0,-0.415 0,-1.004 0.035,-1.696 0.035,-0.727 -0.007,-1.211 -0.007,-1.488 l 0,-8.785 -1.963,0 0.176,-0.941 c 1.477,-0.762 2.744,-1.662 3.799,-2.631 1.021,-1.004 1.9,-2.111 2.604,-3.426 l 0.485,0 c -0.035,0.45 -0.134,1.003 -0.169,1.626 0,0.658 -0.036,1.419 -0.036,2.354 l 0,1.396 z m -0.211,18.046 0,0 0.035,0 z m -8.763,0.084 c -0.669,-0.035 -1.337,-0.045 -2.006,-0.045 -0.703,-0.034 -1.372,-0.034 -2.04,-0.034 -0.669,0 -1.337,0 -2.006,0.034 -0.668,0 -1.337,0.035 -2.005,0.069 l 0,-0.38 c 0.528,-0.277 0.879,-0.86 1.055,-1.622 0.211,-0.726 0.267,-2.18 0.267,-4.291 l 0,-1.973 0,-1.627 c 0,-2.423 -0.126,-4.154 -0.478,-5.192 -0.351,-1.038 -0.914,-1.558 -1.724,-1.558 -0.844,0 -1.512,0.589 -2.005,1.766 -0.493,1.211 -0.689,2.872 -0.689,4.984 l 0,1.627 c 0,3.219 0.056,5.295 0.267,6.126 0.211,0.865 0.598,1.517 1.126,1.76 l 0,0.38 c -0.634,-0.034 -1.267,-0.069 -1.9,-0.069 -0.633,-0.034 -1.302,-0.034 -2.006,-0.034 -0.668,0 -1.372,0 -2.11,0.034 -0.704,0 -1.443,0.035 -2.217,0.069 l 0,-0.38 c 0.669,-0.277 1.311,-0.929 1.557,-1.725 0.282,-0.796 0.387,-2.527 0.387,-5.192 l 0,-0.969 0,-4.812 c 0,-1.488 -0.105,-2.422 -0.352,-2.838 -0.211,-0.415 -0.783,-0.657 -1.381,-0.692 l 0,-0.381 c 1.161,-0.173 2.252,-0.346 3.342,-0.554 1.091,-0.207 2.261,-0.449 3.282,-0.692 l 0,2.493 c 0.527,-1.073 1.011,-1.697 1.749,-2.216 0.739,-0.484 1.619,-0.727 2.639,-0.727 1.9,0 3.307,0.693 4.187,2.042 0.879,1.385 1.209,3.531 1.209,6.438 l 0,1.939 c 0,3.115 0.14,5.122 0.387,6.057 0.246,0.969 0.831,1.596 1.465,1.804 z M 45.16,34.879 c 0.809,1.419 2.041,2.146 3.659,2.146 1.126,0 2.146,-0.554 3.026,-1.662 0.879,-1.107 1.513,-2.63 1.9,-4.569 l 0.879,0.658 c -0.387,2.354 -1.302,4.188 -2.674,5.538 -1.407,1.35 -3.096,2.008 -5.136,2.008 -2.322,0 -4.257,-0.935 -5.77,-2.769 -1.548,-1.87 -2.322,-4.189 -2.322,-7.027 0,-2.7 0.774,-4.915 2.357,-6.715 1.583,-1.765 3.554,-2.63 5.946,-2.63 2.287,0 4.151,0.692 5.523,2.077 1.373,1.349 2.076,3.165 2.076,5.484 l -10.77,0 0,0.988 c 0,2.873 0.497,5.054 1.306,6.473 z m 4.081,-9.068 c 0,-1.627 -0.211,-2.735 -0.633,-3.6 -0.387,-0.866 -0.985,-1.316 -1.759,-1.316 -0.809,0 -1.442,0.45 -1.97,1.385 -0.493,0.9 -0.874,1.974 -0.944,3.531 z M 19.6,38.564 c -2.27,0 -4.449,-0.381 -6.478,-1.08 15.911,0.108 27.268,-11.433 24.753,-25.184 0.856,2.165 1.326,4.52 1.326,6.981 0,10.648 -8.777,19.283 -19.601,19.283 z m -5.455,-8.071 0,-17.792 4.933,0 c 6.157,0.018 10.551,4.313 10.221,10.97 C 33.66,15.374 28.842,6.897 20.08,6.935 l -13.013,0 0,27.17 C 2.749,30.568 0,25.24 0,19.281 0,8.634 8.778,-0.001 19.6,-0.001 c 6.037,0 11.435,2.686 15.031,6.909 1.021,14.472 -5.094,24.186 -20.486,23.585 z"
     id="path-1"
     class="cls-2"
     style="fill:#ffffff;fill-rule:evenodd"
     inkscape:connector-curvature="0"
     sodipodi:nodetypes="ccscscccccccscscccccccsccccscscscccscccscccssccccscscscccssccsccccccscccccscscccccccsccccccccsccccscscscssccccsccccscscccccccscsscccssccccscscscccssccscccsccsscccccccsscc" />
  <g
     transform="matrix(0.96074418,0,0,1.0408598,0.58542878,0.20263625)"
     inkscape:transform-center-x="-0.36705996"
     inkscape:transform-center-y="-0.18352921"
     style="font-style:normal;font-weight:normal;font-size:10.8725605px;line-height:125%;font-family:sans-serif;letter-spacing:0px;word-spacing:0px;fill:#ffffff;fill-opacity:1;stroke:none;stroke-width:1px;stroke-linecap:butt;stroke-linejoin:miter;stroke-opacity:1"
     id="text5611">
    <path
       d="m 121.72714,8.7092514 4.87,0 0,1.0299203 -1.75192,0 0,4.2541723 -1.36261,0 0,-4.2541723 -1.75547,0 0,-1.0299203 z"
       style="font-style:normal;font-variant:normal;font-weight:bold;font-stretch:normal;font-size:7.24837399px;font-family:sans-serif;-inkscape-font-specification:'sans-serif Bold';fill:#ffffff"
       id="path5775"
       inkscape:connector-curvature="0" />
    <path
       d="m 127.29791,8.7092514 1.73423,0 1.20335,2.8278566 1.21042,-2.8278566 1.73069,0 0,5.2840926 -1.28829,0 0,-3.864855 -1.2175,2.849092 -0.86357,0 -1.2175,-2.849092 0,3.864855 -1.29183,0 0,-5.2840926 z"
       style="font-style:normal;font-variant:normal;font-weight:bold;font-stretch:normal;font-size:7.24837399px;font-family:sans-serif;-inkscape-font-specification:'sans-serif Bold';fill:#ffffff"
       id="path5777"
       inkscape:connector-curvature="0" />
  </g>
</svg>
